<svg version="1.1" id="Layer_1" xmlns="http://www.w3.org/2000/svg" xmlns:xlink="http://www.w3.org/1999/xlink" x="0px" y="0px"
	 width="100%" viewBox="0 0 512 512" enable-background="new 0 0 512 512" xml:space="preserve">
<path fill="#000000" opacity="1.000000" stroke="none" 
	d="
M224.999542,77.128197 
	C256.647644,77.303497 287.798218,77.300522 318.943512,77.704018 
	C349.403046,78.098640 378.291931,105.386696 381.439606,135.584808 
	C384.110931,161.212967 375.660736,181.933136 355.853821,198.197998 
	C354.968353,198.925125 353.932861,199.551727 353.504364,201.494553 
	C372.304962,215.762024 382.514832,234.998428 382.083740,259.083832 
	C381.803894,274.719421 376.040253,288.580139 366.078125,300.713135 
	C346.694153,324.321167 304.265686,336.154510 269.231079,308.982483 
	C267.653473,310.486786 268.382324,312.431244 268.376587,314.139404 
	C268.314392,332.632019 268.353882,351.125000 268.331573,369.617798 
	C268.286530,406.918121 235.561737,438.195740 198.299026,436.574646 
	C165.521103,435.148682 139.645096,414.056702 133.411896,382.466949 
	C128.241043,356.261261 136.612503,334.265747 156.793137,316.778412 
	C158.032455,315.704437 159.299133,314.662079 161.178482,313.077850 
	C142.593658,298.762543 131.904922,280.282043 131.930939,257.031982 
	C131.956985,233.753571 142.247574,215.112656 161.029877,201.301956 
	C159.829514,198.950668 157.757095,198.059692 156.188828,196.649384 
	C135.584427,178.120575 127.239372,155.174850 134.143860,128.265213 
	C141.084518,101.214600 159.182312,84.478348 186.649643,78.682838 
	C199.097031,76.056480 211.864563,77.305016 224.999542,77.128197 
M219.500061,100.290825 
	C210.041992,100.697685 200.545120,99.471436 191.112625,101.195190 
	C169.913834,105.069214 154.869110,123.670418 155.173615,145.778397 
	C155.470291,167.317627 171.268082,185.744019 192.447998,188.659698 
	C209.000610,190.938354 225.691513,189.215057 242.314774,189.616852 
	C245.411285,189.691681 245.651627,187.582199 245.650482,185.223419 
	C245.637390,158.416901 245.595139,131.610184 245.704712,104.804100 
	C245.719330,101.230904 244.342529,100.171745 240.978378,100.252098 
	C234.155853,100.415047 227.326569,100.294655 219.500061,100.290825 
M222.499847,301.669373 
	C228.827148,301.665192 235.155563,301.590057 241.481277,301.688232 
	C244.430298,301.733948 245.676056,300.594513 245.670044,297.575928 
	C245.615997,270.435272 245.629242,243.294495 245.657654,216.153793 
	C245.660126,213.789978 244.996597,212.274536 242.301559,212.346161 
	C225.679596,212.787979 208.966324,210.922211 192.442001,213.278519 
	C170.659607,216.384613 155.318130,234.634171 155.163040,256.597046 
	C155.007996,278.557800 170.154678,296.867035 191.615372,300.762146 
	C201.541565,302.563751 211.542923,301.240112 222.499847,301.669373 
M302.498108,100.291443 
	C292.673035,100.294479 282.847656,100.339882 273.023041,100.274132 
	C270.164337,100.254997 268.284821,100.689842 268.297485,104.292305 
	C268.392853,131.435806 268.368805,158.579819 268.332672,185.723602 
	C268.329010,188.464005 269.457275,189.705429 272.201324,189.635361 
	C288.330048,189.223480 304.510101,190.776093 320.589447,188.768143 
	C339.585602,186.395935 354.199524,172.435272 358.309509,153.189468 
	C362.066437,135.596924 353.484039,116.567513 337.736786,106.828430 
	C327.087646,100.242332 315.387299,99.959152 302.498108,100.291443 
M155.229202,371.381805 
	C155.345215,373.372650 155.238831,375.406189 155.611343,377.347839 
	C159.759521,398.970306 178.984879,414.083099 201.716553,413.670807 
	C222.740097,413.289490 241.712143,396.624573 244.706421,375.426270 
	C246.925995,359.712555 245.169342,343.858734 245.643173,328.076080 
	C245.756577,324.298431 243.216858,324.368561 240.590469,324.372620 
	C227.275467,324.393188 213.957596,324.212280 200.645950,324.426453 
	C169.859085,324.921783 153.507370,350.031952 155.229202,371.381805 
M294.864990,216.342377 
	C274.720367,225.523773 266.842987,244.918747 268.639862,260.661835 
	C271.842560,288.721619 295.193207,305.474976 323.048096,300.669006 
	C346.813477,296.568604 363.490936,271.562103 358.188873,247.978149 
	C351.848694,219.776581 323.687622,205.423325 294.864990,216.342377 
z"/>
</svg>