<svg version="1.1" id="Layer_1" xmlns="http://www.w3.org/2000/svg" xmlns:xlink="http://www.w3.org/1999/xlink" x="0px" y="0px"
	 width="100%" viewBox="0 0 512 512" enable-background="new 0 0 512 512" xml:space="preserve">
<path fill="#000000" opacity="1.000000" stroke="none" 
	d="
M249.783264,153.758530 
	C259.646698,145.514740 269.203308,137.437546 277.155029,127.723625 
	C287.697601,114.844734 293.730469,100.527367 290.764557,83.418907 
	C290.487061,81.818123 289.392365,79.956650 291.207336,77.680435 
	C296.385284,82.854424 298.258087,89.268921 299.263489,95.912437 
	C302.535858,117.536018 293.440979,134.826477 279.568848,150.238007 
	C270.082489,160.777100 259.384308,170.088272 248.811615,179.501907 
	C243.314499,184.396378 238.313690,189.723801 233.686478,195.417755 
	C222.047440,209.739990 222.440247,225.334122 229.010208,241.489731 
	C233.149902,251.669281 239.737717,260.222321 247.122925,268.236389 
	C248.835434,270.094727 251.219070,271.564270 251.870682,275.068390 
	C246.449097,273.541168 242.820892,270.050537 238.844620,267.309387 
	C227.766312,259.672211 218.010849,250.648605 211.400116,238.728943 
	C201.779129,221.381592 202.116409,204.422134 213.844650,188.063461 
	C220.506210,178.771866 228.977722,171.255600 237.621674,163.916016 
	C241.557877,160.573761 245.544937,157.291412 249.783264,153.758530 
z"/>
<path fill="#000000" opacity="1.000000" stroke="none" 
	d="
M353.037384,388.059723 
	C355.005249,386.023193 356.690277,384.207581 358.362427,382.405853 
	C363.542297,384.671509 364.888214,389.306641 361.634979,394.025604 
	C359.006134,397.838837 355.221710,400.268372 351.091980,402.193024 
	C336.426636,409.027771 320.689667,411.909943 304.875397,414.135925 
	C281.608185,417.410889 258.172424,419.035767 234.676941,418.111023 
	C206.244431,416.991882 177.891174,414.846405 150.265640,407.280884 
	C145.120865,405.871918 140.124863,404.055603 135.402069,401.508942 
	C124.267281,395.504639 123.960114,387.711304 134.832352,381.051514 
	C145.068878,374.781067 156.557648,371.921906 168.174591,369.584961 
	C171.549225,368.906128 174.978027,367.358704 179.124466,369.080353 
	C176.122345,371.701996 172.843262,371.921051 169.984329,373.032593 
	C165.451385,374.795013 160.976425,376.674194 157.325653,379.917511 
	C152.089600,384.569183 152.560669,388.849060 158.741425,392.108276 
	C170.564148,398.342529 183.591339,400.552979 196.572037,402.522919 
	C215.835281,405.446381 235.247086,407.336823 254.749329,406.570953 
	C282.665680,405.474609 310.621033,404.295380 337.572540,395.713257 
	C342.988831,393.988525 348.181976,391.754730 353.037384,388.059723 
z"/>
<path fill="#000000" opacity="1.000000" stroke="none" 
	d="
M285.781311,229.286591 
	C287.820770,232.951096 289.609467,236.336624 291.537384,239.640945 
	C297.872681,250.499252 296.114319,260.661407 288.942505,270.344574 
	C284.837921,275.886475 279.567780,280.227142 274.104462,284.339417 
	C273.066284,285.120880 271.942474,286.002167 270.442322,285.119263 
	C269.341736,283.734375 270.313263,282.626465 271.079315,281.603760 
	C278.088776,272.246429 277.697937,262.420929 272.623993,252.523376 
	C269.973389,247.352966 266.884247,242.384201 263.706665,237.511169 
	C250.381927,217.076736 254.861053,198.508423 269.776855,182.577774 
	C283.897827,167.496017 302.111053,158.899170 321.193451,151.954514 
	C321.754974,151.750183 322.455872,151.928665 323.386688,151.928665 
	C323.200073,154.241516 321.384186,154.548431 320.103851,155.291626 
	C309.555206,161.415009 299.610016,168.295441 291.246216,177.308823 
	C274.736969,195.100159 273.266937,208.143539 285.781311,229.286591 
z"/>
<path fill="#000000" opacity="1.000000" stroke="none" 
	d="
M191.493896,304.755798 
	C182.611099,302.861603 174.110641,301.143677 166.380081,297.007141 
	C163.758926,295.604553 160.741333,294.216675 160.803818,290.612732 
	C160.864868,287.092133 163.742126,285.546021 166.413391,284.196503 
	C176.523834,279.088806 187.581573,277.409607 198.592331,275.717468 
	C204.430435,274.820190 210.279938,273.484680 216.273087,273.873932 
	C216.411606,276.476654 214.736389,276.154480 213.560043,276.409698 
	C206.574936,277.925110 199.538666,279.241943 192.801788,281.717438 
	C191.242432,282.290436 189.691147,282.921600 188.219177,283.685913 
	C186.757980,284.444641 185.015076,285.219055 185.040298,287.181641 
	C185.066254,289.203186 186.952560,289.827881 188.423538,290.428680 
	C193.220474,292.387909 198.292801,293.304169 203.388000,294.159790 
	C226.818024,298.094269 250.379059,298.510590 274.033966,297.092316 
	C290.661926,296.095337 307.100555,293.920715 323.395416,290.405334 
	C328.430389,289.319092 331.625000,293.591949 335.447601,296.656982 
	C288.256134,311.999268 240.311676,312.274200 191.493896,304.755798 
z"/>
<path fill="#000000" opacity="1.000000" stroke="none" 
	d="
M182.407440,335.768311 
	C180.484680,334.395996 178.668365,333.414307 177.349014,331.976562 
	C175.097763,329.523285 174.971298,326.633545 177.716217,324.546173 
	C184.808334,319.153076 193.230682,317.863098 202.423111,316.425049 
	C198.062729,323.122314 198.609436,324.747375 205.231308,327.253113 
	C212.144211,329.868988 219.443588,330.824585 226.694550,331.506165 
	C252.349152,333.917694 277.856537,332.762878 303.018433,326.933197 
	C310.709869,325.151215 314.507568,331.420441 320.966431,333.646851 
	C317.133026,337.549133 312.915283,338.162994 309.050446,339.164337 
	C283.050354,345.900543 256.649292,347.669769 229.894531,345.521820 
	C213.759247,344.226440 197.815262,342.310883 182.407440,335.768311 
z"/>
<path fill="#000000" opacity="1.000000" stroke="none" 
	d="
M282.910583,382.215363 
	C256.949615,386.776123 231.590408,386.573364 206.498978,379.362457 
	C202.473709,378.205658 198.601501,376.656250 195.281021,374.084564 
	C190.371765,370.282471 190.601639,365.636749 195.894791,362.455048 
	C200.772064,359.523346 206.079300,357.759766 212.321182,357.349579 
	C211.224945,363.096527 215.244186,364.312103 219.195694,365.286957 
	C232.212418,368.498260 245.475464,369.242554 258.791687,368.379944 
	C267.891937,367.790436 277.028534,367.188049 285.937195,364.902618 
	C287.010864,364.627136 288.400482,364.576416 289.359100,365.026947 
	C294.578033,367.479797 299.632202,370.245850 305.080597,374.023224 
	C298.119537,379.109467 290.523163,380.118317 282.910583,382.215363 
z"/>
<path fill="#000000" opacity="1.000000" stroke="none" 
	d="
M339.958099,426.195618 
	C311.277039,434.064453 282.410370,436.637146 253.155319,436.544342 
	C229.109100,436.468079 205.311234,434.608185 181.832016,429.301910 
	C179.080215,428.679993 176.371338,427.859863 173.663971,427.059265 
	C173.290741,426.948883 173.041809,426.418091 172.404022,425.718567 
	C176.748123,423.536591 180.750626,425.606201 184.560852,426.077637 
	C211.052139,429.355713 237.570465,430.485718 264.256104,429.061218 
	C284.889099,427.959778 305.401825,426.187256 325.561554,421.580109 
	C343.485229,417.484009 361.090790,412.466675 375.528381,400.145691 
	C375.988190,399.753296 376.696686,399.652313 377.621979,399.282562 
	C378.542572,403.649109 376.272858,406.483368 373.791046,409.047607 
	C365.373199,417.745148 354.290741,421.503418 343.215057,425.231232 
	C342.270538,425.549103 341.306458,425.809052 339.958099,426.195618 
z"/>
<path fill="#000000" opacity="1.000000" stroke="none" 
	d="
M381.995911,311.859985 
	C369.107635,328.703949 351.096680,335.917725 331.700714,342.274750 
	C331.564087,338.292480 333.805237,338.113861 335.205597,337.238800 
	C343.680023,331.943146 352.137451,326.628967 358.970734,319.187042 
	C365.220184,312.380981 369.524994,304.643036 369.640717,295.148438 
	C369.776978,283.967010 361.665558,275.614960 350.440491,275.128906 
	C348.802307,275.058044 347.101318,275.443390 345.557922,274.553284 
	C348.163177,269.101898 364.250092,269.147644 374.256805,274.535889 
	C384.793762,280.209625 392.899292,295.321747 381.995911,311.859985 
z"/>
</svg>