<svg width="82" height="82" viewBox="0 0 82 82" fill="none" xmlns="http://www.w3.org/2000/svg">
<circle cx="41" cy="41" r="40" fill="black" stroke="white" stroke-width="2"/>
<path d="M40.6 9L10.3334 66.7333L11.6667 68.2L12.3334 68.8667L13.1334 69.6667L14.7334 71.1333L16.4667 72.6L17.1334 73.1333L17.9334 73.6667L19.5334 74.7333L21.2667 75.8L22.2 76.3333L22.7334 76.6L23 76.7333H23.1334L30.2 64.2H51.8L59.6667 76.3333L61.6667 75.4L63.4 74.2L66.7334 71.6667L69.6667 68.8667L72.3334 65.9333L40.6 9Z" fill="white"/>
<path d="M41.1334 41L47.4842 53.4H34.7825L41.1334 41Z" fill="black"/>
<path d="M47.5 22H42.5L22 60.5H12" stroke="black" stroke-width="2" stroke-linecap="round" stroke-linejoin="round"/>
<path d="M54.5 32.5H46L66.5 68H53.5" stroke="black" stroke-width="2" stroke-linecap="round" stroke-linejoin="round"/>
</svg>
