<svg version="1.1" id="Layer_1" xmlns="http://www.w3.org/2000/svg" xmlns:xlink="http://www.w3.org/1999/xlink" x="0px" y="0px"
	 width="100%" viewBox="0 0 512 512" enable-background="new 0 0 512 512" xml:space="preserve">
<path fill="#FFFFFF" opacity="1.000000" stroke="none" 
	d="
M289.000000,513.000000 
	C267.979095,513.000000 246.958206,513.000000 225.770691,512.631653 
	C224.765076,511.843292 223.968964,511.224762 223.080688,511.032928 
	C209.236816,508.042847 195.232269,505.665924 181.564697,502.022491 
	C163.518524,497.211823 146.652679,489.381622 130.377411,480.147125 
	C114.537926,471.159882 99.468567,461.018890 86.352493,448.523315 
	C74.328850,437.068481 62.982533,424.732574 52.577190,411.788574 
	C36.561607,391.865540 24.588367,369.434021 16.035969,345.306030 
	C9.728827,327.512360 4.448838,309.430481 2.905969,290.466553 
	C2.862283,289.929565 1.661332,289.486725 0.999999,289.000000 
	C1.000000,267.645782 1.000000,246.291550 1.364810,224.770218 
	C2.151994,223.766495 2.771095,222.973404 2.967257,222.086746 
	C5.956462,208.575409 8.352330,194.906250 11.963103,181.565247 
	C17.397827,161.485153 26.223436,142.794113 36.958115,124.954643 
	C51.342545,101.049820 69.297295,80.278809 90.368851,62.055801 
	C109.443573,45.559685 130.447159,32.160515 153.542282,22.123949 
	C175.776840,12.461370 198.778976,5.400370 223.032761,2.921941 
	C223.746521,2.849004 224.346802,1.665632 225.000000,1.000001 
	C246.020889,1.000000 267.041779,1.000000 288.229309,1.368985 
	C289.235321,2.157562 290.031921,2.775161 290.920532,2.967109 
	C304.764771,5.957648 318.770813,8.331560 332.437225,11.980136 
	C350.481323,16.797436 367.370941,24.562307 383.633514,33.846317 
	C399.448669,42.874924 414.534912,52.986168 427.651367,65.480675 
	C439.675537,76.934654 451.007446,89.280731 461.429504,102.212830 
	C477.473358,122.120766 489.345276,144.609482 497.954987,168.697998 
	C504.308563,186.474274 509.551208,204.569763 511.094055,223.533539 
	C511.137726,224.070480 512.338684,224.513290 513.000000,225.000000 
	C513.000000,246.020889 513.000000,267.041779 512.630981,288.229309 
	C511.842407,289.235199 511.224792,290.031738 511.032867,290.920227 
	C508.042450,304.764404 505.668945,318.770386 502.020264,332.436615 
	C497.202820,350.480438 489.438751,367.370239 480.154388,383.632416 
	C471.125519,399.447052 461.015015,414.533722 448.520660,427.650055 
	C437.066772,439.674103 424.730560,451.019806 411.786560,461.424561 
	C391.863586,477.439301 369.432220,489.411652 345.304871,497.964172 
	C327.511566,504.271423 309.430054,509.551208 290.466461,511.094116 
	C289.929504,511.137756 289.486694,512.338684 289.000000,513.000000 
M159.000961,330.348724 
	C159.000961,316.349030 159.535767,302.324249 158.880676,288.355286 
	C157.788055,265.055878 175.765213,245.912292 200.626907,246.384171 
	C237.613129,247.086182 274.622559,246.569885 311.622101,246.555969 
	C313.785400,246.555161 315.963654,246.547043 318.109283,246.309784 
	C327.437500,245.278336 333.935486,238.319870 333.958557,228.871368 
	C334.040039,195.538849 334.260864,162.202560 333.870911,128.874252 
	C333.546082,101.112061 310.827789,78.520691 283.143402,77.994080 
	C265.817078,77.664497 248.471680,77.600235 231.149017,78.012360 
	C212.285599,78.461143 197.859512,87.217819 187.696991,103.082268 
	C176.504105,120.555168 180.923218,139.992859 179.947174,159.000961 
	C186.616867,159.000961 192.602783,159.000900 198.588684,159.000977 
	C217.755112,159.001205 236.921829,158.942749 256.087860,159.030136 
	C263.964111,159.066025 268.755371,164.932983 267.064606,172.113617 
	C265.840698,177.311661 261.730957,179.990601 254.800903,179.993011 
	C213.301437,180.007462 171.801193,179.851273 130.302750,180.058258 
	C101.333183,180.202744 78.464363,202.722519 77.968941,231.428436 
	C77.672760,248.589279 77.692467,265.763397 77.981560,282.924591 
	C78.374397,306.243744 94.161301,327.162750 116.941483,331.771790 
	C129.967926,334.407349 143.734863,333.411377 157.174316,333.880707 
	C157.752594,333.900909 158.390564,332.212372 159.000961,330.348724 
M333.923798,386.245300 
	C333.923798,375.962280 333.923798,365.679260 333.923798,354.999847 
	C332.005493,354.999847 330.378418,354.999847 328.751343,354.999847 
	C306.095032,354.999847 283.438721,355.000671 260.782410,354.997833 
	C259.283356,354.997650 257.774384,355.075043 256.287018,354.935364 
	C250.508484,354.392792 246.471054,349.896973 246.597198,344.238037 
	C246.718521,338.795380 250.713913,334.562317 256.305176,334.063660 
	C257.958984,333.916168 259.634674,334.002106 261.300354,334.001984 
	C301.948456,333.999298 342.597046,334.124725 383.244446,333.957367 
	C412.968475,333.834991 435.691437,311.234833 436.073029,281.551025 
	C436.291443,264.562225 436.555634,247.550232 435.932281,230.580536 
	C435.163177,209.644897 424.706512,194.414246 406.047394,185.084366 
	C389.746429,176.933609 372.221283,180.921158 355.294128,179.963165 
	C355.107544,180.806839 355.043243,180.962082 355.043060,181.117401 
	C355.025421,196.609970 355.222717,212.107208 354.879700,227.592468 
	C354.767578,232.654785 353.956177,237.940125 352.247192,242.684998 
	C346.501221,258.638275 332.416351,267.509186 313.447388,267.543304 
	C275.464844,267.611603 237.482101,267.547699 199.499466,267.573669 
	C186.894699,267.582306 180.013199,274.453400 180.005951,286.981934 
	C179.987640,318.634155 179.954376,350.286438 180.012787,381.938538 
	C180.070816,413.394043 202.640945,435.968292 234.133347,436.113098 
	C249.292770,436.182800 264.452911,436.169708 279.612488,436.115692 
	C309.352295,436.009705 330.655243,416.776398 333.923798,386.245300 
z"/>
<path fill="#000000" opacity="1.000000" stroke="none" 
	d="
M0.999999,289.468658 
	C1.661332,289.486725 2.862283,289.929565 2.905969,290.466553 
	C4.448838,309.430481 9.728827,327.512360 16.035969,345.306030 
	C24.588367,369.434021 36.561607,391.865540 52.577190,411.788574 
	C62.982533,424.732574 74.328850,437.068481 86.352493,448.523315 
	C99.468567,461.018890 114.537926,471.159882 130.377411,480.147125 
	C146.652679,489.381622 163.518524,497.211823 181.564697,502.022491 
	C195.232269,505.665924 209.236816,508.042847 223.080688,511.032928 
	C223.968964,511.224762 224.765076,511.843292 225.302032,512.631653 
	C150.406296,513.000000 75.812599,513.000000 1.000000,513.000000 
	C1.000000,438.645905 1.000000,364.291626 0.999999,289.468658 
z"/>
<path fill="#000000" opacity="1.000000" stroke="none" 
	d="
M513.000000,224.531342 
	C512.338684,224.513290 511.137726,224.070480 511.094055,223.533539 
	C509.551208,204.569763 504.308563,186.474274 497.954987,168.697998 
	C489.345276,144.609482 477.473358,122.120766 461.429504,102.212830 
	C451.007446,89.280731 439.675537,76.934654 427.651367,65.480675 
	C414.534912,52.986168 399.448669,42.874924 383.633514,33.846317 
	C367.370941,24.562307 350.481323,16.797436 332.437225,11.980136 
	C318.770813,8.331560 304.764771,5.957648 290.920532,2.967109 
	C290.031921,2.775161 289.235321,2.157562 288.697937,1.368985 
	C363.593719,1.000000 438.187408,1.000000 513.000000,1.000000 
	C513.000000,75.354088 513.000000,149.708389 513.000000,224.531342 
z"/>
<path fill="#000000" opacity="1.000000" stroke="none" 
	d="
M289.468628,513.000000 
	C289.486694,512.338684 289.929504,511.137756 290.466461,511.094116 
	C309.430054,509.551208 327.511566,504.271423 345.304871,497.964172 
	C369.432220,489.411652 391.863586,477.439301 411.786560,461.424561 
	C424.730560,451.019806 437.066772,439.674103 448.520660,427.650055 
	C461.015015,414.533722 471.125519,399.447052 480.154388,383.632416 
	C489.438751,367.370239 497.202820,350.480438 502.020264,332.436615 
	C505.668945,318.770386 508.042450,304.764404 511.032867,290.920227 
	C511.224792,290.031738 511.842407,289.235199 512.630981,288.697937 
	C513.000000,363.593719 513.000000,438.187408 513.000000,513.000000 
	C438.645905,513.000000 364.291626,513.000000 289.468628,513.000000 
z"/>
<path fill="#000000" opacity="1.000000" stroke="none" 
	d="
M224.531342,1.000001 
	C224.346802,1.665632 223.746521,2.849004 223.032761,2.921941 
	C198.778976,5.400370 175.776840,12.461370 153.542282,22.123949 
	C130.447159,32.160515 109.443573,45.559685 90.368851,62.055801 
	C69.297295,80.278809 51.342545,101.049820 36.958115,124.954643 
	C26.223436,142.794113 17.397827,161.485153 11.963103,181.565247 
	C8.352330,194.906250 5.956462,208.575409 2.967257,222.086746 
	C2.771095,222.973404 2.151994,223.766495 1.364810,224.301559 
	C1.000000,149.739456 1.000000,75.478920 1.000000,1.000000 
	C75.354088,1.000000 149.708389,1.000000 224.531342,1.000001 
z"/>
<path fill="#010101" opacity="1.000000" stroke="none" 
	d="
M159.000854,330.834259 
	C158.390564,332.212372 157.752594,333.900909 157.174316,333.880707 
	C143.734863,333.411377 129.967926,334.407349 116.941483,331.771790 
	C94.161301,327.162750 78.374397,306.243744 77.981560,282.924591 
	C77.692467,265.763397 77.672760,248.589279 77.968941,231.428436 
	C78.464363,202.722519 101.333183,180.202744 130.302750,180.058258 
	C171.801193,179.851273 213.301437,180.007462 254.800903,179.993011 
	C261.730957,179.990601 265.840698,177.311661 267.064606,172.113617 
	C268.755371,164.932983 263.964111,159.066025 256.087860,159.030136 
	C236.921829,158.942749 217.755112,159.001205 198.588684,159.000977 
	C192.602783,159.000900 186.616867,159.000961 179.947174,159.000961 
	C180.923218,139.992859 176.504105,120.555168 187.696991,103.082268 
	C197.859512,87.217819 212.285599,78.461143 231.149017,78.012360 
	C248.471680,77.600235 265.817078,77.664497 283.143402,77.994080 
	C310.827789,78.520691 333.546082,101.112061 333.870911,128.874252 
	C334.260864,162.202560 334.040039,195.538849 333.958557,228.871368 
	C333.935486,238.319870 327.437500,245.278336 318.109283,246.309784 
	C315.963654,246.547043 313.785400,246.555161 311.622101,246.555969 
	C274.622559,246.569885 237.613129,247.086182 200.626907,246.384171 
	C175.765213,245.912292 157.788055,265.055878 158.880676,288.355286 
	C159.535767,302.324249 159.000961,316.349030 159.000854,330.834259 
M224.325882,113.957016 
	C221.245911,118.216202 221.037811,122.606842 224.224701,126.804001 
	C226.966705,130.415237 230.780563,131.846954 235.235565,130.580124 
	C239.631607,129.330048 242.300888,126.252197 242.880173,121.740211 
	C243.465256,117.183029 241.512405,113.553543 237.536423,111.370872 
	C232.920242,108.836761 228.599319,109.704697 224.325882,113.957016 
z"/>
<path fill="#000000" opacity="1.000000" stroke="none" 
	d="
M333.906891,386.712128 
	C330.655243,416.776398 309.352295,436.009705 279.612488,436.115692 
	C264.452911,436.169708 249.292770,436.182800 234.133347,436.113098 
	C202.640945,435.968292 180.070816,413.394043 180.012787,381.938538 
	C179.954376,350.286438 179.987640,318.634155 180.005951,286.981934 
	C180.013199,274.453400 186.894699,267.582306 199.499466,267.573669 
	C237.482101,267.547699 275.464844,267.611603 313.447388,267.543304 
	C332.416351,267.509186 346.501221,258.638275 352.247192,242.684998 
	C353.956177,237.940125 354.767578,232.654785 354.879700,227.592468 
	C355.222717,212.107208 355.025421,196.609970 355.043060,181.117401 
	C355.043243,180.962082 355.107544,180.806839 355.294128,179.963165 
	C372.221283,180.921158 389.746429,176.933609 406.047394,185.084366 
	C424.706512,194.414246 435.163177,209.644897 435.932281,230.580536 
	C436.555634,247.550232 436.291443,264.562225 436.073029,281.551025 
	C435.691437,311.234833 412.968475,333.834991 383.244446,333.957367 
	C342.597046,334.124725 301.948456,333.999298 261.300354,334.001984 
	C259.634674,334.002106 257.958984,333.916168 256.305176,334.063660 
	C250.713913,334.562317 246.718521,338.795380 246.597198,344.238037 
	C246.471054,349.896973 250.508484,354.392792 256.287018,354.935364 
	C257.774384,355.075043 259.283356,354.997650 260.782410,354.997833 
	C283.438721,355.000671 306.095032,354.999847 328.751343,354.999847 
	C330.378418,354.999847 332.005493,354.999847 333.923798,354.999847 
	C333.923798,365.679260 333.923798,375.962280 333.906891,386.712128 
M274.392792,385.849121 
	C270.428741,390.757660 269.936462,395.140656 272.872070,399.388641 
	C275.571472,403.294800 280.289856,404.926666 284.662323,403.445312 
	C288.828735,402.033752 291.284149,399.062103 291.881439,394.787659 
	C292.456879,390.669647 290.833527,387.258209 287.412262,384.923706 
	C283.233032,382.072052 279.019409,382.372223 274.392792,385.849121 
z"/>
<path fill="#F8F8F8" opacity="1.000000" stroke="none" 
	d="
M224.587860,113.674927 
	C228.599319,109.704697 232.920242,108.836761 237.536423,111.370872 
	C241.512405,113.553543 243.465256,117.183029 242.880173,121.740211 
	C242.300888,126.252197 239.631607,129.330048 235.235565,130.580124 
	C230.780563,131.846954 226.966705,130.415237 224.224701,126.804001 
	C221.037811,122.606842 221.245911,118.216202 224.587860,113.674927 
z"/>
<path fill="#F8F8F8" opacity="1.000000" stroke="none" 
	d="
M274.675720,385.587219 
	C279.019409,382.372223 283.233032,382.072052 287.412262,384.923706 
	C290.833527,387.258209 292.456879,390.669647 291.881439,394.787659 
	C291.284149,399.062103 288.828735,402.033752 284.662323,403.445312 
	C280.289856,404.926666 275.571472,403.294800 272.872070,399.388641 
	C269.936462,395.140656 270.428741,390.757660 274.675720,385.587219 
z"/>
</svg>